#!OML:ASF G:\JayActor3\Patient Classification 1\Patient 1\Session 6\male.ASF
:FULLY-SPECIFIED
:DEGREES
2032
root 8.16011 16.3053 -6.33756 168.793 -51.6963 -172.475
lowerback 8.2079 -4.1901 2.2915
upperback 5.71744 -5.787 1.31514
thorax 1.25912 -3.00986 0.478786
lowerneck -4.84754 -6.48068 -3.37176
upperneck 1.83605 -9.61693 15.8175
head 2.30854 -4.69277 4.91813
rclavicle 5.69518e-014 -1.07344e-014
rhumerus -30.8922 -9.48998 -76.6755
rradius 24.8347
rwrist 6.6675
rhand -18.9224 -6.38354
rfingers 7.12502
rthumb 7.38003 -36.2348
lclavicle 5.69518e-014 -1.07344e-014
lhumerus -29.6856 1.58739 83.1526
lradius 34.8084
lwrist 20.4134
lhand -20.799 7.04409
lfingers 7.12502
lthumb 5.56839 36.9509
rfemur -8.91509 -11.4798 30.3206
rtibia 32.4952
rfoot -31.5849 -22.073
rtoes 7.02198
lfemur 1.1117 23.7879 3.0319
ltibia 40.243
lfoot -16.033 24.8755
ltoes 11.1286
2033
root 8.14725 16.3063 -6.40997 168.93 -50.8946 -172.743
lowerback 8.18461 -4.12463 2.4533
upperback 5.73672 -5.69449 1.25959
thorax 1.27213 -2.95934 0.323656
lowerneck -4.95236 -6.35119 -3.29319
upperneck 2.06568 -9.46423 15.6602
head 2.36637 -4.603 4.85991
rclavicle 3.51849e-014 -9.44227e-015
rhumerus -30.7455 -9.27988 -76.8874
rradius 25.0311
rwrist 6.47018
rhand -18.7983 -6.27936
rfingers 7.12502
rthumb 7.49989 -36.1264
lclavicle 3.51849e-014 -9.44227e-015
lhumerus -29.6975 1.72585 83.0643
lradius 34.9724
lwrist 20.5103
lhand -20.833 6.99026
lfingers 7.12502
lthumb 5.53557 36.898
rfemur -8.37036 -11.2995 30.3773
rtibia 32.1963
rfoot -31.3942 -21.6395
rtoes 6.75052
lfemur 0.720979 23.5329 2.8091
ltibia 41.1868
lfoot -15.6638 23.7821
ltoes 9.42953
2034
root 8.13407 16.3089 -6.48215 169.118 -50.0795 -173.026
lowerback 8.12371 -4.05549 2.60728
upperback 5.74829 -5.59758 1.20167
thorax 1.29898 -2.90601 0.167317
lowerneck -5.06736 -6.21896 -3.20488
upperneck 2.29286 -9.3055 15.4816
head 2.42348 -4.51011 4.79392
rclavicle 1.07592e-014 8.74653e-015
rhumerus -30.5862 -9.00928 -77.1382
rradius 25.2548
rwrist 6.24536
rhand -18.7119 -6.16004
rfingers 7.12502
rthumb 7.58323 -36.0041
lclavicle 1.07592e-014 8.74653e-015
lhumerus -29.7103 1.82927 82.9783
lradius 35.1378
lwrist 20.5967
lhand -20.8489 6.94855
lfingers 7.12502
lthumb 5.52024 36.8566
rfemur -7.86509 -11.097 30.4244
rtibia 31.8882
rfoot -31.2 -21.1968
rtoes 6.56159
lfemur 0.264108 23.2201 2.47603
ltibia 42.0599
lfoot -15.4253 22.9238
ltoes 7.81798
2035
root 8.12072 16.3126 -6.55429 169.329 -49.2427 -173.278
lowerback 8.02737 -3.98388 2.77657
upperback 5.74677 -5.49633 1.15266
thorax 1.33203 -2.84954 0.00923119
lowerneck -5.18578 -6.08357 -3.11027
upperneck 2.51457 -9.13938 15.2819
head 2.47801 -4.41389 4.72112
rclavicle 6.95746e-015 -5.06901e-015
rhumerus -30.4207 -8.68001 -77.4178
rradius 25.5045
rwrist 6.00814
rhand -18.6459 -6.08482
rfingers 7.12502
rthumb 7.64694 -35.9266
lclavicle 6.95746e-015 -5.06901e-015
lhumerus -29.7386 1.90464 82.8976
lradius 35.3146
lwrist 20.6848
lhand -20.858 6.91608
lfingers 7.12502
lthumb 5.51146 36.8244
rfemur -7.4041 -10.8593 30.5005
rtibia 31.5641
rfoot -30.9915 -20.7758
rtoes 6.42138
lfemur -0.262442 22.8672 2.07935
ltibia 42.8731
lfoot -15.3078 22.2631
ltoes 6.38453
2036
root 8.10703 16.3172 -6.62643 169.552 -48.3821 -173.489
lowerback 7.89399 -3.90774 2.97014
upperback 5.73506 -5.38814 1.11473
thorax 1.37483 -2.78848 -0.153642
lowerneck -5.30208 -5.94614 -3.0156
upperneck 2.72263 -8.96648 15.069
head 2.52743 -4.31525 4.6451
rclavicle -8.19987e-015 -1.02374e-014
rhumerus -30.2504 -8.30252 -77.7164
rradius 25.7796
rwrist 5.76782
rhand -18.5728 -6.05996
rfingers 7.12502
rthumb 7.71745 -35.8991
lclavicle -8.19987e-015 -1.02374e-014
lhumerus -29.7832 1.94925 82.8279
lradius 35.5054
lwrist 20.7704
lhand -20.8802 6.89229
lfingers 7.12502
lthumb 5.48998 36.8012
rfemur -6.9852 -10.5802 30.6138
rtibia 31.2267
rfoot -30.7785 -20.3715
rtoes 6.33953
lfemur -0.857792 22.476 1.63599
ltibia 43.633
lfoot -15.2976 21.7817
ltoes 5.10658
2037
root 8.09285 16.3221 -6.69832 169.785 -47.5073 -173.665
lowerback 7.7343 -3.83069 3.18358
upperback 5.71085 -5.27781 1.08875
thorax 1.41963 -2.72546 -0.316534
lowerneck -5.40464 -5.8058 -2.9307
upperneck 2.91109 -8.78465 14.8501
head 2.56868 -4.21384 4.57024
rclavicle 6.18469e-014 -2.127e-014
rhumerus -30.0832 -7.87557 -78.0253
rradius 26.0788
rwrist 5.52613
rhand -18.4984 -6.09963
rfingers 7.12502
rthumb 7.78931 -35.9362
lclavicle 6.18469e-014 -2.127e-014
lhumerus -29.8538 1.95701 82.7761
lradius 35.7098
lwrist 20.8655
lhand -20.93 6.85867
lfingers 7.12502
lthumb 5.44195 36.7688
rfemur -6.60519 -10.2753 30.7543
rtibia 30.8857
rfoot -30.5635 -19.9785
rtoes 6.29897
lfemur -1.50551 22.0533 1.15669
ltibia 44.3431
lfoot -15.4131 21.4147
ltoes 4.14837
2038
root 8.07796 16.3267 -6.76985 170.031 -46.6171 -173.813
lowerback 7.54337 -3.74806 3.41809
upperback 5.68244 -5.16032 1.06931
thorax 1.47748 -2.65784 -0.486678
lowerneck -5.49954 -5.6654 -2.84454
upperneck 3.07634 -8.59843 14.6245
head 2.60165 -4.11183 4.49401
rclavicle -4.72859e-014 2.88238e-015
rhumerus -29.9092 -7.51766 -78.2866
rradius 26.3698
rwrist 5.51985
rhand -18.2335 -6.04893
rfingers 7.12502
rthumb 8.04501 -35.8758
lclavicle -4.72859e-014 2.88238e-015
lhumerus -29.9407 1.93122 82.7391
lradius 35.9264
lwrist 20.9574
lhand -21.0016 6.82034
lfingers 7.12502
lthumb 5.37281 36.7322
rfemur -6.26473 -9.95154 30.913
rtibia 30.5558
rfoot -30.3518 -19.5853
rtoes 6.28194
lfemur -2.19454 21.6059 0.645717
ltibia 45.0012
lfoot -15.6253 21.1375
ltoes 3.43351
2039
root 8.06211 16.3313 -6.84069 170.322 -45.7331 -173.99
lowerback 7.33228 -3.66514 3.63386
upperback 5.64832 -5.04414 1.04824
thorax 1.54296 -2.59079 -0.648896
lowerneck -5.58327 -5.52401 -2.76413
upperneck 3.21656 -8.40587 14.3945
head 2.62546 -4.00842 4.41845
rclavicle 9.89575e-015 1.59028e-015
rhumerus -29.7341 -7.09845 -78.5665
rradius 26.6867
rwrist 5.44687
rhand -18.0114 -6.07037
rfingers 7.12502
rthumb 8.25932 -35.8889
lclavicle 9.89575e-015 1.59028e-015
lhumerus -30.0418 1.88051 82.7185
lradius 36.1458
lwrist 21.0533
lhand -21.0829 6.76696
lfingers 7.12502
lthumb 5.29428 36.6808
rfemur -5.96158 -9.64391 31.0353
rtibia 30.2504
rfoot -30.1389 -19.1772
rtoes 6.25812
lfemur -2.92509 21.1198 0.0570333
ltibia 45.6026
lfoot -15.8834 20.9527
ltoes 2.82117
2040
root 8.04499 16.3354 -6.91081 170.644 -44.8531 -174.194
lowerback 7.11357 -3.58123 3.82973
upperback 5.6092 -4.92805 1.02612
thorax 1.60999 -2.52397 -0.801065
lowerneck -5.64916 -5.38191 -2.69103
upperneck 3.33168 -8.20735 14.1609
head 2.63912 -3.90402 4.34414
rclavicle 1.06667e-013 -3.56322e-014
rhumerus -29.555 -6.64426 -78.8484
rradius 27.011
rwrist 5.34964
rhand -17.81 -6.06596
rfingers 7.12502
rthumb 8.45365 -35.8768
lclavicle 1.06667e-013 -3.56322e-014
lhumerus -30.1553 1.82034 82.7113
lradius 36.361
lwrist 21.1434
lhand -21.1526 6.70345
lfingers 7.12502
lthumb 5.22705 36.619
rfemur -5.68571 -9.36616 31.1152
rtibia 29.9774
rfoot -29.9207 -18.7521
rtoes 6.1909
lfemur -3.67731 20.5922 -0.599492
ltibia 46.1442
lfoot -16.1758 20.8411
ltoes 2.27826
2041
root 8.02674 16.3388 -6.98013 170.98 -43.9624 -174.401
lowerback 6.89131 -3.49321 4.02297
upperback 5.56697 -4.8073 1.00632
thorax 1.67743 -2.45476 -0.949293
lowerneck -5.70791 -5.2392 -2.6116
upperneck 3.4259 -8.00451 13.9172
head 2.645 -3.79884 4.26642
rclavicle 3.79896e-014 -4.84538e-015
rhumerus -29.3683 -6.14339 -79.1493
rradius 27.346
rwrist 5.1692
rhand -17.6931 -6.09694
rfingers 7.12502
rthumb 8.56651 -35.9032
lclavicle 3.79896e-014 -4.84538e-015
lhumerus -30.2723 1.75366 82.7111
lradius 36.5677
lwrist 21.2333
lhand -21.2082 6.62555
lfingers 7.12502
lthumb 5.1733 36.5424
rfemur -5.43842 -9.11244 31.1726
rtibia 29.7396
rfoot -29.7073 -18.2917
rtoes 6.1095
lfemur -4.44707 20.031 -1.29483
ltibia 46.6241
lfoot -16.4985 20.7756
ltoes 1.73746
2042
root 8.0074 16.3414 -7.04858 171.319 -43.0631 -174.604
lowerback 6.67581 -3.40338 4.21481
upperback 5.52268 -4.68465 0.989911
thorax 1.74062 -2.38475 -1.09227
lowerneck -5.75751 -5.09558 -2.53099
upperneck 3.5022 -7.79747 13.6677
head 2.6441 -3.69285 4.1874
rclavicle -1.0566e-013 3.50606e-014
rhumerus -29.1793 -5.57235 -79.4783
rradius 27.6988
rwrist 4.84968
rhand -17.7039 -6.1775
rfingers 7.12502
rthumb 8.55611 -35.9841
lclavicle -1.0566e-013 3.50606e-014
lhumerus -30.3863 1.69191 82.7145
lradius 36.7557
lwrist 21.321
lhand -21.2453 6.53303
lfingers 7.12502
lthumb 5.13747 36.4508
rfemur -5.21057 -8.89007 31.2082
rtibia 29.5341
rfoot -29.4905 -17.8014
rtoes 5.99392
lfemur -5.22609 19.4256 -2.0209
ltibia 47.0429
lfoot -16.8453 20.7495
ltoes 1.20876
